<svg width="434" height="434" viewBox="0 0 434 434" fill="none" xmlns="http://www.w3.org/2000/svg">
<g filter="url(#filter0_d_3_23)">
<circle cx="217" cy="212" r="205" fill="white"/>
</g>
<path d="M68.8906 289V270.201L85.541 266.979V154.723L68.8906 151.5V132.594H138.393C156.798 132.594 171.156 136.174 181.469 143.336C191.781 150.497 196.938 161.204 196.938 175.455C196.938 182.688 195.004 189.169 191.137 194.898C187.341 200.556 181.791 204.817 174.486 207.682C183.868 209.687 190.886 213.984 195.541 220.572C200.268 227.161 202.631 234.788 202.631 243.453C202.631 258.421 197.689 269.771 187.807 277.506C177.924 285.169 163.923 289 145.805 289H68.8906ZM116.908 198.121H139.467C147.846 198.121 154.291 196.402 158.803 192.965C163.314 189.527 165.57 184.514 165.57 177.926C165.57 163.818 156.511 156.764 138.393 156.764H116.908V198.121ZM116.908 264.938H145.805C162.849 264.938 171.371 257.776 171.371 243.453C171.371 235.79 169.509 229.954 165.785 225.943C162.061 221.861 156.189 219.82 148.168 219.82H116.908V264.938ZM213.266 289V270.201L229.916 266.979V154.723L213.266 151.5V132.594H278.041V151.5L261.283 154.723V199.84H325.092V154.723L308.334 151.5V132.594H373.109V151.5L356.352 154.723V266.979L373.109 270.201V289H308.334V270.201L325.092 266.979V224.01H261.283V266.979L278.041 270.201V289H213.266Z" fill="black"/>
<defs>
<filter id="filter0_d_3_23" x="0" y="0" width="434" height="434" filterUnits="userSpaceOnUse" color-interpolation-filters="sRGB">
<feFlood flood-opacity="0" result="BackgroundImageFix"/>
<feColorMatrix in="SourceAlpha" type="matrix" values="0 0 0 0 0 0 0 0 0 0 0 0 0 0 0 0 0 0 127 0" result="hardAlpha"/>
<feMorphology radius="5" operator="dilate" in="SourceAlpha" result="effect1_dropShadow_3_23"/>
<feOffset dy="5"/>
<feGaussianBlur stdDeviation="3.5"/>
<feComposite in2="hardAlpha" operator="out"/>
<feColorMatrix type="matrix" values="0 0 0 0 0 0 0 0 0 0 0 0 0 0 0 0 0 0 0.25 0"/>
<feBlend mode="normal" in2="BackgroundImageFix" result="effect1_dropShadow_3_23"/>
<feBlend mode="normal" in="SourceGraphic" in2="effect1_dropShadow_3_23" result="shape"/>
</filter>
</defs>
</svg>
